<svg xmlns="http://www.w3.org/2000/svg" width="41" height="41" viewBox="0 0 41 41"><g><g><g opacity=".8"><path fill="#31d647" d="M20.562 0a6.313 6.313 0 1 1 0 12.625 6.313 6.313 0 0 1 0-12.625z"/></g><g opacity=".8"><path fill="#732ca1" d="M20.61 28.406a6.297 6.297 0 1 1 0 12.594 6.297 6.297 0 0 1 0-12.594z"/></g><g opacity=".8"><path fill="#d6315d" d="M6.297 14.062c3.478 0 6.297 2.827 6.297 6.313 0 3.486-2.82 6.312-6.297 6.312C2.819 26.687 0 23.861 0 20.375s2.82-6.313 6.297-6.313z"/></g><g opacity=".8"><path fill="#7749dd" d="M34.719 14.281c3.469 0 6.281 2.805 6.281 6.266 0 3.46-2.812 6.265-6.281 6.265-3.47 0-6.282-2.805-6.282-6.265 0-3.46 2.813-6.266 6.282-6.266z"/></g><g opacity=".8"><path fill="#ff4133" d="M35.06 5.94c2.46 2.463 2.453 6.463-.016 8.935-2.47 2.472-6.466 2.48-8.926.017-2.46-2.462-2.453-6.462.017-8.934 2.47-2.472 6.465-2.48 8.926-.017z"/></g><g opacity=".8"><path fill="#008cff" d="M14.91 5.94c2.46 2.463 2.452 6.463-.017 8.935-2.47 2.472-6.466 2.48-8.926.017-2.46-2.462-2.453-6.462.017-8.934 2.469-2.472 6.465-2.48 8.925-.017z"/></g><g opacity=".8"><path fill="#2dd" d="M14.91 26.107c2.46 2.462 2.453 6.462-.016 8.934-2.47 2.472-6.466 2.48-8.926.017-2.46-2.462-2.453-6.462.017-8.934 2.47-2.472 6.466-2.48 8.926-.017z"/></g><g opacity=".8"><path fill="#ff9b00" d="M35.046 26.125c2.47 2.47 2.477 6.469.017 8.93-2.46 2.462-6.458 2.454-8.928-.017-2.47-2.47-2.477-6.469-.017-8.93 2.46-2.462 6.458-2.454 8.928.017z"/></g></g></g></svg>