<svg xmlns="http://www.w3.org/2000/svg" width="16" height="16" viewBox="0 0 58 58">
  <g fill="none" fill-rule="evenodd">
    <g fill="#FFA46D" transform="translate(1.964)">
      <path d="M24.3240811 45.917875L18.2432432 45.917875 18.2432432 50.750725 14.5945946 50.750725 14.5945946 45.57495C10.4074054 44.49615 7.2972973 40.7508 7.2972973 36.25145L7.2972973 32.62645 10.9459459 32.62645 10.9459459 36.25145C10.9459459 39.58935 13.6707568 42.292875 17.0267838 42.292875L24.3240811 42.292875 24.3240811 15.950725C22.6537297 17.290525 20.5564865 18.125725 18.2432432 18.125725L13.3788649 18.125725 13.3788649 14.500725 18.2432432 14.500725C21.6029189 14.500725 24.3240811 11.7943 24.3240811 8.4593L24.3240811.4437C23.5637027.167475 22.7493243 0 21.8911622 0 12.9724054 0 5.30951351 9.437325 1.89875676 22.960025L12.1624054 22.960025C16.1883243 22.960025 19.4597027 26.202225 19.4597027 30.2093L19.4597027 35.0436 15.8110541 35.0436 15.8110541 30.2093C15.8110541 28.206125 14.1771892 26.5843 12.1624054 26.5843L1.10481081 26.5843C.396972973 30.3891 0 34.442575 0 38.667875 0 49.34205 8.71078378 58 19.458973 58L21.8911622 57.9971C22.7507838 57.9971 23.5637027 57.83035 24.3233514 57.557025L24.3233514 45.917875 24.3240811 45.917875zM41.3501351 26.5843C39.3353514 26.5843 37.7014865 28.2054 37.7014865 30.2093L37.7014865 35.0436 34.0535676 35.0436 34.0535676 30.2093C34.0535676 26.202225 37.3234865 22.960025 41.3501351 22.960025L51.6137838 22.960025C48.2037568 9.437325 40.5401351 0 31.6213784 0 30.7632162 0 29.9488378.167475 29.1884595.4437L29.1884595 8.460025C29.1884595 11.795025 31.9103514 14.50145 35.2692973 14.50145L40.1336757 14.50145 40.1336757 18.12645 35.2692973 18.12645C32.9560541 18.12645 30.8588108 17.29125 29.1884595 15.95145L29.1884595 42.292875 37.7014865 42.292875C41.0582432 42.292875 43.7823243 39.588625 43.7823243 36.25145L43.7823243 32.62645 47.430973 32.62645 47.430973 36.25145C47.430973 40.7508 44.3215946 44.49615 40.1336757 45.57495L40.1336757 50.750725 36.485027 50.750725 36.485027 45.917875 29.1884595 45.917875 29.1884595 57.554125C29.9488378 57.83035 30.7632162 57.9971 31.6213784 57.9971L34.0535676 58C44.8039459 58 53.5118108 49.34205 53.5118108 38.667875 53.5118108 34.4433 53.1148378 30.3891 52.407 26.5843L41.3501351 26.5843z"/>
    </g>
  </g>
</svg>
