<svg xmlns="http://www.w3.org/2000/svg" xmlns:xlink="http://www.w3.org/1999/xlink" preserveAspectRatio="xMidYMid" width="23.593" height="18.751" viewBox="0 0 23.593 18.751">
  <defs>
    <style>
      .cls-1 {
        fill: #f4f9fd;
        fill-rule: evenodd;
      }
    </style>
  </defs>
  <path d="M21.605,18.353 C21.429,18.616 21.137,18.763 20.838,18.763 C20.704,18.763 20.569,18.734 20.441,18.673 L18.504,17.750 C18.044,17.531 17.848,16.981 18.068,16.521 C18.287,16.061 18.837,15.865 19.297,16.084 L20.486,16.651 C21.322,15.162 21.761,13.499 21.761,11.797 C21.761,10.369 21.465,8.991 20.883,7.702 C20.674,7.237 20.880,6.691 21.345,6.481 C21.809,6.272 22.355,6.478 22.565,6.943 C23.256,8.473 23.606,10.106 23.606,11.797 C23.606,14.128 22.914,16.395 21.605,18.353 ZM13.754,13.754 C13.214,14.294 12.505,14.563 11.796,14.563 C11.088,14.563 10.379,14.294 9.839,13.754 C8.760,12.675 8.760,10.919 9.839,9.840 C10.584,9.095 17.508,4.364 18.888,3.423 C19.255,3.173 19.747,3.219 20.060,3.533 C20.374,3.846 20.420,4.339 20.170,4.705 C19.229,6.085 14.498,13.010 13.754,13.754 ZM11.144,11.145 C10.784,11.504 10.784,12.090 11.144,12.449 C11.504,12.809 12.089,12.809 12.449,12.449 C12.734,12.160 14.137,10.194 15.818,7.775 C13.399,9.457 11.433,10.859 11.144,11.145 ZM15.892,2.710 C14.882,2.254 13.818,1.974 12.719,1.874 L12.719,3.263 C12.719,3.772 12.306,4.185 11.796,4.185 C11.287,4.185 10.874,3.772 10.874,3.263 L10.874,1.875 C7.668,2.171 4.897,3.992 3.295,6.604 L4.584,7.222 C5.043,7.442 5.237,7.993 5.017,8.453 C4.858,8.783 4.528,8.976 4.184,8.976 C4.050,8.976 3.915,8.947 3.786,8.885 L2.481,8.259 C2.062,9.359 1.832,10.552 1.832,11.797 C1.832,13.496 2.269,15.156 3.103,16.644 L4.242,16.088 C4.700,15.865 5.252,16.055 5.475,16.513 C5.699,16.971 5.509,17.523 5.051,17.747 L3.159,18.669 C3.030,18.732 2.892,18.763 2.755,18.763 C2.456,18.763 2.164,18.616 1.988,18.353 C0.679,16.395 -0.013,14.128 -0.013,11.797 C-0.013,8.642 1.215,5.677 3.446,3.446 C5.676,1.216 8.642,-0.013 11.796,-0.013 C13.488,-0.013 15.121,0.338 16.651,1.028 C17.115,1.238 17.322,1.784 17.112,2.249 C16.902,2.713 16.356,2.920 15.892,2.710 Z"/>
</svg>
