<svg xmlns="http://www.w3.org/2000/svg" xmlns:xlink="http://www.w3.org/1999/xlink" preserveAspectRatio="xMidYMid" width="26" height="17.25" viewBox="0 0 26 17.25">
  <path d="M19.500,10.200 C18.556,10.200 17.661,10.038 16.852,9.754 C15.737,10.326 14.118,10.664 13.000,10.664 C13.745,9.918 14.186,9.168 14.334,8.183 C13.501,7.325 13.000,6.256 13.000,5.093 C13.000,2.272 15.910,-0.014 19.500,-0.014 C23.090,-0.014 26.000,2.272 26.000,5.093 C26.000,7.913 23.090,10.200 19.500,10.200 ZM19.500,1.843 C16.936,1.843 14.857,3.298 14.857,5.093 C14.857,6.888 16.936,8.343 19.500,8.343 C22.064,8.343 24.143,6.888 24.143,5.093 C24.143,3.298 22.064,1.843 19.500,1.843 ZM14.102,14.736 C14.060,14.550 14.024,14.362 13.996,14.170 L13.860,13.262 L14.301,12.808 C15.154,12.623 16.100,12.315 16.977,11.966 C17.031,11.979 17.086,11.986 17.140,11.998 C16.829,12.686 16.386,13.326 15.833,13.896 C16.032,15.234 16.631,16.252 17.643,17.264 C16.126,17.264 13.928,16.804 12.415,16.029 C11.317,16.415 10.103,16.634 8.821,16.634 C3.949,16.634 0.000,13.530 0.000,9.702 C0.000,5.875 3.949,2.771 8.821,2.771 C9.755,2.771 10.652,2.887 11.496,3.098 C11.287,3.680 11.171,4.293 11.152,4.927 C10.423,4.737 9.641,4.629 8.821,4.629 C4.981,4.629 1.857,6.905 1.857,9.702 C1.857,12.500 4.981,14.777 8.821,14.777 C9.852,14.777 10.855,14.608 11.800,14.277 L12.552,14.012 L13.263,14.376 C13.512,14.504 13.796,14.625 14.102,14.736 Z"/>
</svg>
