<svg xmlns="http://www.w3.org/2000/svg" xmlns:xlink="http://www.w3.org/1999/xlink" preserveAspectRatio="xMidYMid" width="24" height="24" viewBox="0 0 24 24">
  <path d="M23.300,24.003 L14.813,24.003 C14.425,24.003 14.110,23.688 14.110,23.300 L14.110,18.283 L0.700,18.283 C0.312,18.283 -0.003,17.968 -0.003,17.579 L-0.003,0.700 C-0.003,0.312 0.312,-0.003 0.700,-0.003 L7.780,-0.003 C8.929,-0.003 9.951,0.551 10.593,1.406 C11.236,0.551 12.258,-0.003 13.407,-0.003 L20.486,-0.003 C20.875,-0.003 21.190,0.312 21.190,0.700 L21.190,8.437 L23.300,8.437 C23.688,8.437 24.003,8.751 24.003,9.140 L24.003,23.300 C24.003,23.688 23.688,24.003 23.300,24.003 ZM1.404,16.876 L9.769,16.876 C9.479,16.058 8.697,15.469 7.780,15.469 L1.404,15.469 L1.404,16.876 ZM9.890,3.513 C9.890,2.350 8.944,1.404 7.780,1.404 L1.404,1.404 L1.404,14.063 L7.780,14.063 C8.571,14.063 9.302,14.326 9.890,14.768 L9.890,3.513 ZM14.110,16.876 L14.110,15.469 L13.407,15.469 C12.490,15.469 11.708,16.058 11.418,16.876 L14.110,16.876 ZM19.783,1.404 L13.407,1.404 C12.243,1.404 11.297,2.350 11.297,3.513 L11.297,14.768 C11.885,14.326 12.615,14.063 13.407,14.063 L14.110,14.063 L14.110,9.140 C14.110,8.751 14.425,8.437 14.813,8.437 L19.783,8.437 L19.783,1.404 ZM22.596,9.843 L15.516,9.843 L15.516,19.783 L22.596,19.783 L22.596,9.843 ZM22.596,21.190 L15.516,21.190 L15.516,22.596 L22.596,22.596 L22.596,21.190 ZM12.703,6.327 C12.703,5.938 13.018,5.623 13.407,5.623 L17.673,5.623 C18.062,5.623 18.376,5.938 18.376,6.327 C18.376,6.715 18.062,7.030 17.673,7.030 L13.407,7.030 C13.018,7.030 12.703,6.715 12.703,6.327 ZM17.673,4.217 L13.407,4.217 C13.018,4.217 12.703,3.902 12.703,3.513 C12.703,3.125 13.018,2.810 13.407,2.810 L17.673,2.810 C18.062,2.810 18.376,3.125 18.376,3.513 C18.376,3.902 18.062,4.217 17.673,4.217 ZM3.514,12.656 C3.125,12.656 2.810,12.342 2.810,11.953 C2.810,11.565 3.125,11.250 3.514,11.250 L7.780,11.250 C8.169,11.250 8.483,11.565 8.483,11.953 C8.483,12.342 8.169,12.656 7.780,12.656 L3.514,12.656 ZM7.780,9.843 L3.514,9.843 C3.125,9.843 2.810,9.528 2.810,9.140 C2.810,8.751 3.125,8.437 3.514,8.437 L7.780,8.437 C8.169,8.437 8.483,8.751 8.483,9.140 C8.483,9.528 8.169,9.843 7.780,9.843 ZM7.780,7.030 L3.514,7.030 C3.125,7.030 2.810,6.715 2.810,6.327 C2.810,5.938 3.125,5.623 3.514,5.623 L7.780,5.623 C8.169,5.623 8.483,5.938 8.483,6.327 C8.483,6.715 8.169,7.030 7.780,7.030 ZM7.780,4.217 L3.514,4.217 C3.125,4.217 2.810,3.902 2.810,3.513 C2.810,3.125 3.125,2.810 3.514,2.810 L7.780,2.810 C8.169,2.810 8.483,3.125 8.483,3.513 C8.483,3.902 8.169,4.217 7.780,4.217 Z"/>
</svg>
