<svg xmlns="http://www.w3.org/2000/svg" xmlns:xlink="http://www.w3.org/1999/xlink" preserveAspectRatio="xMidYMid" width="24" height="22" viewBox="0 0 24 22">
  <path d="M21.891,4.125 L18.265,4.125 C17.825,1.739 15.135,-0.000 12.000,-0.000 C8.831,-0.000 6.171,1.762 5.735,4.125 L2.109,4.125 C0.946,4.125 -0.000,5.050 -0.000,6.187 L-0.000,21.312 C-0.000,21.692 0.315,22.000 0.703,22.000 L23.297,22.000 C23.685,22.000 24.000,21.692 24.000,21.312 C24.000,20.558 24.000,6.312 24.000,6.187 C24.000,5.050 23.054,4.125 21.891,4.125 ZM12.000,1.375 C14.393,1.375 16.365,2.581 16.821,4.125 L7.179,4.125 C7.633,2.585 9.600,1.375 12.000,1.375 ZM1.406,6.187 C1.406,5.808 1.722,5.500 2.109,5.500 L21.891,5.500 C22.278,5.500 22.594,5.808 22.594,6.187 L22.594,11.163 C21.727,11.384 20.770,11.581 19.734,11.750 L19.734,11.687 C19.734,11.308 19.420,11.000 19.031,11.000 L16.219,11.000 C15.830,11.000 15.516,11.308 15.516,11.687 L15.516,12.230 C13.203,12.386 10.797,12.386 8.484,12.230 L8.484,11.687 C8.484,11.308 8.170,11.000 7.781,11.000 L4.969,11.000 C4.580,11.000 4.266,11.308 4.266,11.687 L4.266,11.750 C3.230,11.581 2.273,11.384 1.406,11.163 L1.406,6.187 ZM18.328,12.375 L18.328,15.125 L16.922,15.125 L16.922,12.375 L18.328,12.375 ZM7.078,12.375 L7.078,15.125 L5.672,15.125 L5.672,12.375 L7.078,12.375 ZM1.406,20.625 L1.406,12.581 C2.284,12.793 3.240,12.982 4.266,13.143 L4.266,15.812 C4.266,16.192 4.580,16.500 4.969,16.500 L7.781,16.500 C8.170,16.500 8.484,16.192 8.484,15.812 L8.484,13.608 C9.642,13.684 10.821,13.723 12.000,13.723 C13.179,13.723 14.358,13.684 15.516,13.608 L15.516,15.812 C15.516,16.192 15.830,16.500 16.219,16.500 L19.031,16.500 C19.420,16.500 19.734,16.192 19.734,15.812 L19.734,13.143 C20.760,12.982 21.716,12.793 22.594,12.581 L22.594,20.625 L1.406,20.625 Z"/>
</svg>
