<svg xmlns="http://www.w3.org/2000/svg" width="14" height="13" viewBox="0 0 14 13"><g><g><path fill="#d3d3d3" d="M0 11.838C0 12.48.533 13 1.19 13h3.873c.658 0 1.191-.52 1.191-1.162V7.19c0-.642-.533-1.162-1.191-1.162H3.15a.588.588 0 0 1-.595-.581c0-.105.026-.177.026-.177.435-1.407 1.534-2.534 2.943-3.033l.006-.006c.426-.177.724-.59.724-1.07C6.255.52 5.722 0 5.064 0c-.161 0-.313.032-.453.087l-.054.02C1.891 1.121 0 3.648 0 6.61zm7.745 0c0 .642.533 1.162 1.191 1.162h3.872c.659 0 1.192-.52 1.192-1.162V7.19c0-.642-.533-1.162-1.192-1.162h-1.912a.588.588 0 0 1-.569-.758c.435-1.407 1.534-2.534 2.943-3.033l.006-.006c.426-.177.724-.59.724-1.07C14 .52 13.467 0 12.808 0c-.16 0-.312.032-.452.087l-.054.02C9.636 1.121 7.745 3.648 7.745 6.61z"/></g></g></svg>