<svg xmlns="http://www.w3.org/2000/svg" width="20" height="18" viewBox="0 0 67 58">
  <g fill="none" fill-rule="evenodd" transform="translate(0 -.867)">
    <path fill="#4FC484" fill-rule="nonzero" d="M11.3072562,-3 L11.5327066,-3 C11.6293282,-2.89857552 11.7234724,-2.79329948 11.8139003,-2.68545573 C19.1435174,6.78296875 26.4632246,16.2578125 33.7953192,25.7223854 C39.6768508,18.1360911 45.5435174,10.5369583 51.4213327,2.94809635 C52.9623237,0.964541667 54.4748237,-1.04340625 56.0467832,-3 L56.2709949,-3 C57.5679544,-1.59161198 58.2009499,0.345723958 58.4759499,2.24069271 C58.9119859,5.52222396 58.1959949,8.84098698 57.0798913,11.9055469 C55.4608598,16.244974 53.013112,20.1928255 50.320094,23.8941771 C47.5292156,27.6879661 44.4187427,31.2185651 41.1707697,34.5938177 C42.2918282,35.9547031 43.4190805,37.311737 44.5401391,38.6726224 C47.1439679,37.5376953 50.1342832,37.3990391 52.8273012,38.2810469 C56.6711075,39.4955729 59.7927291,42.8451484 60.8419409,46.8648958 C61.6297787,49.8010703 61.348585,53.0376667 60.0318057,55.7658568 C58.4078192,59.2104375 55.1759499,61.7845651 51.5365354,62.4958203 C50.9568057,62.6165026 50.3671661,62.6678568 49.7800039,62.7333333 L48.7654769,62.7333333 C46.7921661,62.6293411 44.8324814,62.076 43.1292156,61.0296589 C40.6703192,59.5557943 38.7515129,57.1472839 37.8162652,54.3677396 C36.6159273,50.8718047 37.0247111,46.836651 38.907594,43.6796536 C37.2154769,41.6036615 35.4973463,39.5507786 33.796558,37.4812057 C32.3546661,39.222112 30.9152517,40.9643021 29.4783147,42.7090599 C29.2169409,43.0415781 28.9196436,43.3458516 28.6941931,43.7066146 C30.0964454,46.0650547 30.69104,48.9190625 30.3726841,51.6677943 C30.0444183,54.751612 28.5443057,57.6736641 26.2712201,59.690599 C24.1740354,61.5945547 21.416603,62.6640052 18.6356345,62.7333333 L18.1289904,62.7333333 C15.2501616,62.6652891 12.4060174,61.5111042 10.2803418,59.4928854 C8.39993635,57.7378568 7.0744859,55.3511719 6.56784175,52.779612 C5.97572464,49.87425 6.41919311,46.749349 7.82144536,44.1559635 C9.36243635,41.2531693 12.0604093,39.0333854 15.1473463,38.1629323 C17.7387877,37.4131615 20.5693057,37.5903333 23.0517382,38.6726224 C24.1765129,37.3130208 25.3012877,35.9534193 26.423585,34.5925339 C24.2694183,32.3599115 22.1809048,30.0579609 20.2051165,27.6545859 C16.9707697,23.7054505 13.9754994,19.4956927 11.7519634,14.8391536 C10.1081571,11.3342318 8.85083725,7.49807552 9.00072464,3.55407552 C9.10849491,1.21104167 9.74520662,-1.23726823 11.3072562,-3 L11.3072562,-3 Z M32.9864228,28.6457214 C31.6510625,29.0295937 30.7579318,30.5278516 31.0093958,31.9388073 C31.1815805,33.0557604 32.0350715,34.0250703 33.1003868,34.2882604 C34.1161526,34.573276 35.2632246,34.1932552 35.939576,33.3600339 C36.6159273,32.5601927 36.8116481,31.368776 36.4251616,30.382776 C35.9370985,28.9962135 34.3440805,28.1886693 32.9864228,28.6457214 L32.9864228,28.6457214 Z M17.7115354,44.4024635 C15.1114228,44.6733568 12.8977967,47.0497708 12.754103,49.7587031 C12.6289904,51.2864896 13.1133373,52.8579271 14.0832697,54.0159635 C15.091603,55.2625859 16.6264003,56.0264792 18.1946436,56.0726979 C19.8842832,56.1394583 21.5838327,55.3717135 22.6739228,54.0313698 C23.6463327,52.8694818 24.1343958,51.2967604 24.0167156,49.7651224 C23.9052291,48.1962526 23.1533147,46.6890078 21.9727967,45.6978724 C20.8059048,44.6810599 19.2227967,44.2098854 17.7115354,44.4024635 L17.7115354,44.4024635 Z M48.5598463,44.398612 C46.3412652,44.636125 44.3605219,46.3693281 43.7795535,48.6032344 C43.3212201,50.2196068 43.5838327,52.040112 44.4905895,53.4407969 C45.4729093,55.0148021 47.2269634,56.0341823 49.0367607,56.0726979 C50.4922787,56.1279036 51.9539904,55.5642917 53.0205445,54.5384922 C54.1961075,53.4330938 54.8972336,51.7974635 54.8526391,50.1489948 C54.8600715,48.2309167 53.8566931,46.3577734 52.3057922,45.3204193 C51.2144634,44.565513 49.8605219,44.2458333 48.5598463,44.398612 Z" transform="rotate(90 33.796 29.867)"/>
  </g>
</svg>
