<svg xmlns="http://www.w3.org/2000/svg" width="19" height="13" viewBox="0 0 19 13"><g><g><path fill="#ffa46d" d="M9.498 4.062c.277 0 .543.05.788.138a1.43 1.43 0 0 0-.788 1.284c0 .784.621 1.422 1.386 1.422.388 0 .736-.162.99-.426v.02c0 1.345-1.065 2.437-2.376 2.437-1.31 0-2.375-1.092-2.375-2.437 0-1.345 1.064-2.438 2.375-2.438zM19 6.5c-.012.471-.194.946-.53 1.385C16.996 9.807 13.41 13 9.498 13S2 9.807.526 7.885C.194 7.446.012 6.971 0 6.5c.012-.471.194-.947.526-1.385C2 3.193 5.59 0 9.502 0c3.908 0 7.494 3.193 8.968 5.115.336.438.518.914.53 1.385zm-5.543 0c0-2.243-1.774-4.063-3.959-4.063s-3.96 1.82-3.96 4.063c0 2.242 1.775 4.062 3.96 4.062s3.959-1.82 3.96-4.062z"/></g></g></svg>