<svg xmlns="http://www.w3.org/2000/svg" xmlns:xlink="http://www.w3.org/1999/xlink" preserveAspectRatio="xMidYMid" width="24.969" height="18.438" viewBox="0 0 24.969 18.438">
  <path d="M12.524,7.316 C13.575,7.316 14.426,8.168 14.426,9.219 C14.426,10.270 13.575,11.121 12.524,11.121 C11.474,11.121 10.623,10.270 10.623,9.219 C10.623,8.168 11.474,7.316 12.524,7.316 ZM12.524,3.658 C15.590,3.658 18.083,6.152 18.083,9.219 C18.083,12.285 15.590,14.780 12.524,14.780 C9.459,14.780 6.965,12.285 6.965,9.219 C6.965,6.152 9.459,3.658 12.524,3.658 ZM12.524,5.609 C10.535,5.609 8.916,7.228 8.916,9.219 C8.916,11.209 10.535,12.829 12.524,12.829 C14.514,12.829 16.133,11.209 16.133,9.219 C16.133,7.228 14.514,5.609 12.524,5.609 ZM5.034,15.863 C7.403,17.548 9.984,18.439 12.497,18.439 C15.721,18.439 18.924,17.099 21.516,14.665 C21.909,14.296 21.929,13.679 21.560,13.286 C21.192,12.893 20.575,12.873 20.182,13.242 C18.890,14.454 16.175,16.488 12.497,16.488 C7.635,16.488 3.777,12.592 2.263,10.290 C1.835,9.639 1.835,8.799 2.263,8.148 C3.777,5.846 7.635,1.950 12.497,1.950 C17.357,1.950 21.192,5.850 22.692,8.154 C23.113,8.801 23.113,9.637 22.692,10.284 C22.398,10.735 22.526,11.340 22.978,11.634 C23.429,11.928 24.033,11.800 24.327,11.348 C25.169,10.055 25.169,8.383 24.327,7.089 C23.823,6.315 22.387,4.325 19.953,2.582 C17.592,0.892 15.013,-0.001 12.497,-0.001 C9.984,-0.001 7.403,0.890 5.034,2.575 C2.589,4.315 1.142,6.302 0.633,7.076 C-0.223,8.378 -0.223,10.060 0.633,11.362 C1.142,12.136 2.589,14.123 5.034,15.863 Z"/>
</svg>
